<?xml version="1.0" encoding="UTF-8" standalone="no"?>
<!-- Created with Inkscape (http://www.inkscape.org/) -->

<svg
   xmlns:dc="http://purl.org/dc/elements/1.1/"
   xmlns:cc="http://creativecommons.org/ns#"
   xmlns:rdf="http://www.w3.org/1999/02/22-rdf-syntax-ns#"
   xmlns:svg="http://www.w3.org/2000/svg"
   xmlns="http://www.w3.org/2000/svg"
   xmlns:sodipodi="http://sodipodi.sourceforge.net/DTD/sodipodi-0.dtd"
   xmlns:inkscape="http://www.inkscape.org/namespaces/inkscape"
   width="159.32153mm"
   height="171.60294mm"
   viewBox="0 0 159.32153 171.60293"
   version="1.1"
   id="svg5030"
   inkscape:version="0.92.1 r15371"
   sodipodi:docname="redrhombus.svg">
  <defs
     id="defs5024">
    <clipPath
       clipPathUnits="userSpaceOnUse"
       id="clipPath3988">
      <path
         d="m 659.611,608.034 c -4.432,-1.346 -10.034,-0.31 -15.532,0.726 v 0 c -10.092,1.902 -19.83,3.804 -21.32,-9.017 v 0 c -2.303,-19.807 15.202,-27.177 34.549,-26.717 v 0 c 19.346,0.46 36.39,5.526 34.544,27.177 v 0 c -0.882,10.377 -5.44,13.482 -11.331,13.482 v 0 c -6.399,0 -14.371,-3.665 -20.91,-5.651"
         id="path3986"
         inkscape:connector-curvature="0" />
    </clipPath>
    <clipPath
       clipPathUnits="userSpaceOnUse"
       id="clipPath3856">
      <path
         d="M 0,800 H 800 V 0 H 0 Z"
         id="path3854"
         inkscape:connector-curvature="0" />
    </clipPath>
    <clipPath
       clipPathUnits="userSpaceOnUse"
       id="clipPath3864">
      <path
         d="m 681.853,640.042 h 55.673 v -20.035 h -55.673 z"
         id="path3862"
         inkscape:connector-curvature="0" />
    </clipPath>
    <clipPath
       clipPathUnits="userSpaceOnUse"
       id="clipPath3904">
      <path
         d="m 576.669,640.042 h 55.675 v -20.035 h -55.675 z"
         id="path3902"
         inkscape:connector-curvature="0" />
    </clipPath>
    <clipPath
       clipPathUnits="userSpaceOnUse"
       id="clipPath3952">
      <path
         d="m 578.695,730.228 h 59.534 v -20.495 h -59.534 z"
         id="path3950"
         inkscape:connector-curvature="0" />
    </clipPath>
    <clipPath
       clipPathUnits="userSpaceOnUse"
       id="clipPath3968">
      <path
         d="m 671.436,730.228 h 59.532 v -20.495 h -59.532 z"
         id="path3966"
         inkscape:connector-curvature="0" />
    </clipPath>
    <filter
       style="color-interpolation-filters:sRGB"
       inkscape:label="Drop Shadow"
       id="filter7411">
      <feFlood
         flood-opacity="0.498039"
         flood-color="rgb(0,0,0)"
         result="flood"
         id="feFlood7401" />
      <feComposite
         in="flood"
         in2="SourceGraphic"
         operator="in"
         result="composite1"
         id="feComposite7403" />
      <feGaussianBlur
         in="composite1"
         stdDeviation="3"
         result="blur"
         id="feGaussianBlur7405" />
      <feOffset
         dx="6"
         dy="6"
         result="offset"
         id="feOffset7407" />
      <feComposite
         in="SourceGraphic"
         in2="offset"
         operator="over"
         result="fbSourceGraphic"
         id="feComposite7409" />
      <feColorMatrix
         result="fbSourceGraphicAlpha"
         in="fbSourceGraphic"
         values="0 0 0 -1 0 0 0 0 -1 0 0 0 0 -1 0 0 0 0 1 0"
         id="feColorMatrix9273" />
      <feFlood
         id="feFlood9275"
         flood-opacity="0.498039"
         flood-color="rgb(0,0,0)"
         result="flood"
         in="fbSourceGraphic" />
      <feComposite
         in2="fbSourceGraphic"
         id="feComposite9277"
         in="flood"
         operator="in"
         result="composite1" />
      <feGaussianBlur
         id="feGaussianBlur9279"
         in="composite1"
         stdDeviation="1"
         result="blur" />
      <feOffset
         id="feOffset9281"
         dx="1"
         dy="2"
         result="offset" />
      <feComposite
         in2="offset"
         id="feComposite9283"
         in="fbSourceGraphic"
         operator="over"
         result="composite2" />
    </filter>
    <filter
       style="color-interpolation-filters:sRGB"
       inkscape:label="Drop Shadow"
       id="filter9295">
      <feFlood
         flood-opacity="0.498039"
         flood-color="rgb(0,0,0)"
         result="flood"
         id="feFlood9285" />
      <feComposite
         in="flood"
         in2="SourceGraphic"
         operator="in"
         result="composite1"
         id="feComposite9287" />
      <feGaussianBlur
         in="composite1"
         stdDeviation="1"
         result="blur"
         id="feGaussianBlur9289" />
      <feOffset
         dx="1"
         dy="2"
         result="offset"
         id="feOffset9291" />
      <feComposite
         in="SourceGraphic"
         in2="offset"
         operator="over"
         result="composite2"
         id="feComposite9293" />
    </filter>
  </defs>
  <sodipodi:namedview
     id="base"
     pagecolor="#ffffff"
     bordercolor="#666666"
     borderopacity="1.0"
     inkscape:pageopacity="0.0"
     inkscape:pageshadow="2"
     inkscape:zoom="0.71417785"
     inkscape:cx="85.644557"
     inkscape:cy="502.76736"
     inkscape:document-units="mm"
     inkscape:current-layer="layer3"
     showgrid="false"
     inkscape:window-width="1920"
     inkscape:window-height="1001"
     inkscape:window-x="-9"
     inkscape:window-y="-9"
     inkscape:window-maximized="1"
     inkscape:pagecheckerboard="true"
     fit-margin-top="0"
     fit-margin-left="0"
     fit-margin-right="0"
     fit-margin-bottom="0" />
  <metadata
     id="metadata5027">
    <rdf:RDF>
      <cc:Work
         rdf:about="">
        <dc:format>image/svg+xml</dc:format>
        <dc:type
           rdf:resource="http://purl.org/dc/dcmitype/StillImage" />
        <dc:title></dc:title>
      </cc:Work>
    </rdf:RDF>
  </metadata>
  <g
     inkscape:groupmode="layer"
     id="layer4"
     inkscape:label="Square"
     transform="translate(-23.746409,-112.09713)" />
  <g
     inkscape:label="Layer 1"
     inkscape:groupmode="layer"
     id="layer1"
     transform="translate(-23.746409,-112.09713)" />
  <g
     inkscape:groupmode="layer"
     id="layer3"
     inkscape:label="Layer 3"
     transform="translate(-23.746409,-112.09713)">
    <g
       id="g7399"
       style="filter:url(#filter9295)">
      <path
         transform="matrix(1.5017529,0,0,1.4255941,-56.81893,-83.898139)"
         inkscape:transform-center-y="1.816196e-005"
         inkscape:transform-center-x="3.6697601e-006"
         d="m 107.40065,230.21025 -39.199551,-43.4964 43.496391,-39.19955 39.19956,43.4964 z"
         inkscape:randomized="0"
         inkscape:rounded="0"
         inkscape:flatsided="true"
         sodipodi:arg2="2.4081074"
         sodipodi:arg1="1.6227092"
         sodipodi:r2="29.276873"
         sodipodi:r1="41.403751"
         sodipodi:cy="188.86227"
         sodipodi:cx="109.54907"
         sodipodi:sides="4"
         id="path5886"
         style="fill:#ff5c5c;fill-opacity:1;stroke-width:0.26458332"
         sodipodi:type="star" />
      <g
         transform="translate(0.81698831,-1.7145923)"
         id="g5697">
        <g
           id="g5642">
          <g
             transform="matrix(0.35277777,0,0,-0.35277777,113.01749,181.60649)"
             id="g3874">
            <path
               inkscape:connector-curvature="0"
               id="path3876"
               style="fill:#ffffff;fill-opacity:1;fill-rule:nonzero;stroke:none"
               d="m 0,0 c 0,-17.026 13.802,-30.825 30.826,-30.825 17.024,0 30.825,13.799 30.825,30.825 0,17.023 -13.801,30.823 -30.825,30.823 C 13.802,30.823 0,17.023 0,0" />
          </g>
          <g
             transform="matrix(0.35277777,0,0,-0.35277777,115.66159,181.60649)"
             id="g3882">
            <path
               inkscape:connector-curvature="0"
               id="path3884"
               style="fill:#231f20;fill-opacity:1;fill-rule:nonzero;stroke:none"
               d="m 0,0 c 0,-6.791 5.501,-12.294 12.29,-12.294 6.791,0 12.294,5.503 12.294,12.294 0,6.789 -5.503,12.292 -12.294,12.292 C 5.501,12.292 0,6.789 0,0" />
          </g>
          <g
             transform="matrix(0.35277777,0,0,-0.35277777,116.60626,181.98837)"
             id="g3886">
            <path
               inkscape:connector-curvature="0"
               id="path3888"
               style="fill:#ffffff;fill-opacity:1;fill-rule:nonzero;stroke:none"
               d="m 0,0 c 0,-1.978 1.601,-3.582 3.58,-3.582 1.98,0 3.58,1.604 3.58,3.582 0,1.978 -1.6,3.581 -3.58,3.581 C 1.601,3.581 0,1.978 0,0" />
          </g>
          <g
             transform="matrix(0.35277777,0,0,-0.35277777,117.38414,179.51858)"
             id="g3890">
            <path
               inkscape:connector-curvature="0"
               id="path3892"
               style="fill:#ffffff;fill-opacity:1;fill-rule:nonzero;stroke:none"
               d="M 0,0 C 0,-0.759 0.616,-1.375 1.375,-1.375 2.133,-1.375 2.75,-0.759 2.75,0 2.75,0.759 2.133,1.375 1.375,1.375 0.616,1.375 0,0.759 0,0" />
          </g>
          <g
             transform="matrix(0.35277777,0,0,-0.35277777,100.4508,181.60663)"
             id="g3914">
            <path
               inkscape:connector-curvature="0"
               id="path3916"
               style="fill:#ffffff;fill-opacity:1;fill-rule:nonzero;stroke:none"
               d="m 0,0 c 0,-17.026 -13.801,-30.825 -30.824,-30.825 -17.023,0 -30.825,13.799 -30.825,30.825 0,17.023 13.802,30.824 30.825,30.824 C -13.801,30.824 0,17.023 0,0" />
          </g>
          <g
             transform="matrix(0.35277777,0,0,-0.35277777,97.807723,181.60663)"
             id="g3922">
            <path
               inkscape:connector-curvature="0"
               id="path3924"
               style="fill:#231f20;fill-opacity:1;fill-rule:nonzero;stroke:none"
               d="m 0,0 c 0,-6.791 -5.502,-12.294 -12.294,-12.294 -6.787,0 -12.291,5.503 -12.291,12.294 0,6.789 5.504,12.292 12.291,12.292 C -5.502,12.292 0,6.789 0,0" />
          </g>
          <g
             transform="matrix(0.35277777,0,0,-0.35277777,96.86242,181.98837)"
             id="g3926">
            <path
               inkscape:connector-curvature="0"
               id="path3928"
               style="fill:#ffffff;fill-opacity:1;fill-rule:nonzero;stroke:none"
               d="m 0,0 c 0,-1.979 -1.603,-3.582 -3.58,-3.582 -1.979,0 -3.581,1.603 -3.581,3.582 0,1.977 1.602,3.58 3.581,3.58 C -1.603,3.58 0,1.977 0,0" />
          </g>
          <g
             transform="matrix(0.35277777,0,0,-0.35277777,96.084862,179.51875)"
             id="g3930">
            <path
               inkscape:connector-curvature="0"
               id="path3932"
               style="fill:#ffffff;fill-opacity:1;fill-rule:nonzero;stroke:none"
               d="m 0,0 c 0,-0.758 -0.616,-1.375 -1.376,-1.375 -0.758,0 -1.375,0.617 -1.375,1.375 0,0.759 0.617,1.375 1.375,1.375 C -0.616,1.375 0,0.759 0,0" />
          </g>
        </g>
        <g
           id="g3946"
           transform="matrix(0.35277777,0,0,-0.35277777,-127.95672,419.09941)"
           style="fill:#000000">
          <g
             id="g3960"
             style="fill:#000000">
            <g
               clip-path="url(#clipPath3952)"
               id="g3958"
               style="fill:#000000">
              <g
                 transform="translate(578.6953,709.7329)"
                 id="g3956"
                 style="fill:#000000">
                <g
                   id="g5665"
                   style="fill:#000000">
                  <path
                     inkscape:connector-curvature="0"
                     id="path3954"
                     style="fill:#000000;fill-opacity:1;fill-rule:nonzero;stroke:none"
                     d="M 0,0 C 0,0 0.256,0.125 0.709,0.387 1.152,0.655 1.834,1.02 2.645,1.54 3.449,2.079 4.461,2.627 5.557,3.269 6.618,3.937 7.9,4.592 9.235,5.336 c 0.657,0.392 1.383,0.711 2.107,1.071 0.73,0.356 1.452,0.759 2.246,1.059 1.531,0.704 3.166,1.32 4.84,1.884 1.689,0.531 3.42,1.014 5.201,1.325 0.446,0.077 0.887,0.173 1.335,0.242 0.455,0.041 0.903,0.089 1.354,0.15 0.896,0.149 1.817,0.13 2.723,0.213 1.824,0.028 3.662,0.026 5.484,-0.185 0.913,-0.068 1.818,-0.245 2.722,-0.345 0.896,-0.168 1.793,-0.316 2.672,-0.509 1.767,-0.36 3.471,-0.849 5.112,-1.318 1.626,-0.515 3.2,-1.007 4.635,-1.551 2.897,-1.037 5.336,-2.08 7.088,-2.809 0.863,-0.38 1.579,-0.655 2.042,-0.877 0.481,-0.211 0.737,-0.322 0.737,-0.322 0,0 -0.48,1.028 -1.612,2.636 -0.572,0.796 -1.302,1.743 -2.222,2.754 -0.916,1.019 -2.017,2.107 -3.306,3.209 -1.282,1.114 -2.787,2.188 -4.446,3.254 -1.687,1.007 -3.533,2.025 -5.574,2.817 -2.03,0.809 -4.226,1.511 -6.542,1.901 -2.301,0.474 -4.722,0.597 -7.132,0.55 -1.207,-0.107 -2.42,-0.123 -3.606,-0.363 C 24.499,20.028 23.907,19.923 23.321,19.811 22.738,19.676 22.163,19.511 21.59,19.36 21.021,19.193 20.436,19.087 19.893,18.867 19.344,18.658 18.798,18.451 18.258,18.245 17.164,17.869 16.169,17.311 15.173,16.816 13.215,15.772 11.446,14.578 9.91,13.314 9.12,12.707 8.416,12.054 7.756,11.398 7.104,10.735 6.435,10.154 5.906,9.478 4.802,8.175 3.825,6.99 3.079,5.8 2.314,4.645 1.681,3.653 1.282,2.778 0.842,1.922 0.545,1.208 0.319,0.741 0.104,0.265 0,0 0,0" />
                </g>
              </g>
            </g>
          </g>
        </g>
        <g
           style="fill:#1a1a1a"
           id="g3962"
           transform="matrix(0.35277777,0,0,-0.35277777,-122.71745,418.83745)">
          <g
             style="fill:#1a1a1a"
             id="g3964" />
          <g
             style="fill:#1a1a1a"
             id="g3976">
            <g
               style="fill:#1a1a1a"
               clip-path="url(#clipPath3968)"
               id="g3974">
              <g
                 style="fill:#1a1a1a"
                 transform="translate(730.9678,709.7329)"
                 id="g3972">
                <path
                   d="M 0,0 C 0,0 -0.101,0.265 -0.317,0.741 -0.541,1.208 -0.844,1.922 -1.279,2.778 -1.678,3.653 -2.314,4.645 -3.08,5.8 c -0.742,1.19 -1.723,2.375 -2.825,3.678 -0.528,0.676 -1.201,1.257 -1.85,1.92 -0.658,0.656 -1.363,1.309 -2.152,1.916 -1.537,1.264 -3.307,2.458 -5.267,3.502 -0.995,0.495 -1.986,1.053 -3.086,1.429 -0.538,0.206 -1.083,0.413 -1.63,0.622 -0.542,0.22 -1.128,0.326 -1.696,0.493 -0.573,0.151 -1.148,0.316 -1.732,0.451 -0.587,0.112 -1.18,0.217 -1.776,0.311 -1.185,0.24 -2.396,0.256 -3.602,0.363 -2.41,0.047 -4.835,-0.076 -7.136,-0.55 -2.316,-0.39 -4.507,-1.092 -6.542,-1.901 -2.043,-0.792 -3.882,-1.81 -5.574,-2.817 -1.658,-1.066 -3.16,-2.14 -4.442,-3.254 -1.293,-1.102 -2.393,-2.19 -3.308,-3.209 -0.919,-1.011 -1.649,-1.958 -2.22,-2.754 -1.134,-1.608 -1.614,-2.636 -1.614,-2.636 0,0 0.259,0.111 0.736,0.322 0.466,0.222 1.182,0.497 2.043,0.877 1.75,0.729 4.192,1.772 7.088,2.809 1.436,0.544 3.01,1.036 4.633,1.551 1.644,0.469 3.349,0.958 5.115,1.318 0.881,0.193 1.774,0.341 2.672,0.509 0.906,0.1 1.807,0.277 2.719,0.345 1.826,0.211 3.66,0.213 5.488,0.185 0.905,-0.083 1.823,-0.064 2.719,-0.213 0.452,-0.061 0.903,-0.109 1.353,-0.15 0.449,-0.069 0.894,-0.165 1.335,-0.242 1.78,-0.311 3.513,-0.794 5.2,-1.325 1.678,-0.564 3.314,-1.18 4.845,-1.884 0.795,-0.3 1.515,-0.703 2.241,-1.059 0.725,-0.36 1.456,-0.679 2.108,-1.071 1.335,-0.744 2.621,-1.399 3.682,-2.067 1.093,-0.642 2.106,-1.19 2.913,-1.729 0.81,-0.52 1.491,-0.885 1.936,-1.153 C -0.256,0.125 0,0 0,0"
                   style="fill:#1a1a1a;fill-opacity:1;fill-rule:nonzero;stroke:none"
                   id="path3970"
                   inkscape:connector-curvature="0" />
              </g>
            </g>
          </g>
        </g>
      </g>
      <rect
         y="224.10951"
         x="118.8291"
         height="35.194901"
         width="10.002761"
         id="rect5718-2"
         style="fill:#1a1a1a;stroke-width:0.32388139" />
      <rect
         transform="matrix(-0.22716684,-0.97385587,-0.95641721,0.29200364,-4.1666659e-8,2.9166669e-7)"
         y="-122.82945"
         x="-230.29305"
         height="9.836277"
         width="39.432121"
         id="rect5718-9-7"
         style="fill:#1a1a1a;stroke-width:0.33995906" />
      <rect
         y="223.64641"
         x="85.208702"
         height="35.194901"
         width="10.002761"
         id="rect5718-2-4"
         style="fill:#1a1a1a;stroke-width:0.32388139" />
      <ellipse
         ry="7.0389791"
         rx="10.836324"
         cy="261.99033"
         cx="89.746979"
         id="path5802"
         style="fill:#1a1a1a;stroke-width:0.11704106" />
      <ellipse
         ry="7.0389791"
         rx="10.836324"
         cy="262.36084"
         cx="125.77544"
         id="path5802-3"
         style="fill:#1a1a1a;stroke-width:0.11704107" />
      <ellipse
         inkscape:transform-center-y="0.92618148"
         inkscape:transform-center-x="-7.0389796"
         ry="7.0389791"
         rx="10.836324"
         cy="148.62572"
         cx="155.22803"
         id="path5802-5"
         style="fill:#1a1a1a;stroke-width:0.11704107" />
      <ellipse
         transform="scale(-1,1)"
         inkscape:transform-center-y="0.92618148"
         inkscape:transform-center-x="7.03898"
         ry="7.0389791"
         rx="10.836324"
         cy="221.04216"
         cx="-47.859528"
         id="path5802-5-3"
         style="fill:#1a1a1a;stroke-width:0.11704107" />
      <rect
         transform="matrix(0.22177749,-0.9750973,0.95457333,0.29797608,-4.1666659e-8,2.9166669e-7)"
         y="93.079941"
         x="-195.93141"
         height="9.7171488"
         width="39.339787"
         id="rect5718-9-7-4"
         style="fill:#1a1a1a;stroke-width:0.33749831" />
      <path
         sodipodi:open="true"
         d="m 125.14193,198.2567 a 17.813534,18.992367 0 0 1 -8.90677,16.44787 17.813534,18.992367 0 0 1 -17.813535,0 17.813534,18.992367 0 0 1 -8.906767,-16.44787"
         sodipodi:end="3.1415927"
         sodipodi:start="0"
         sodipodi:ry="18.992367"
         sodipodi:rx="17.813534"
         sodipodi:cy="198.2567"
         sodipodi:cx="107.32839"
         sodipodi:type="arc"
         style="fill:#ffffff;stroke-width:0.24065237"
         id="path5402" />
    </g>
  </g>
  <g
     inkscape:groupmode="layer"
     id="layer2"
     inkscape:label="Layer 2"
     transform="translate(-23.746409,-112.09713)" />
</svg>
